<svg width="64" height="64" viewBox="0 0 64 64" xmlns="http://www.w3.org/2000/svg">
  <!-- Tree trunk -->
  <rect x="28" y="40" width="8" height="16" fill="#8B4513" />
  
  <!-- Tree crown - pixelated -->
  <rect x="20" y="20" width="4" height="4" fill="#228B22" />
  <rect x="24" y="20" width="4" height="4" fill="#228B22" />
  <rect x="28" y="20" width="4" height="4" fill="#228B22" />
  <rect x="32" y="20" width="4" height="4" fill="#228B22" />
  <rect x="36" y="20" width="4" height="4" fill="#228B22" />
  <rect x="40" y="20" width="4" height="4" fill="#228B22" />
  
  <rect x="22" y="24" width="4" height="4" fill="#228B22" />
  <rect x="26" y="24" width="4" height="4" fill="#228B22" />
  <rect x="30" y="24" width="4" height="4" fill="#228B22" />
  <rect x="34" y="24" width="4" height="4" fill="#228B22" />
  <rect x="38" y="24" width="4" height="4" fill="#228B22" />
  
  <rect x="24" y="28" width="4" height="4" fill="#228B22" />
  <rect x="28" y="28" width="4" height="4" fill="#228B22" />
  <rect x="32" y="28" width="4" height="4" fill="#228B22" />
  <rect x="36" y="28" width="4" height="4" fill="#228B22" />
  
  <rect x="26" y="32" width="4" height="4" fill="#228B22" />
  <rect x="30" y="32" width="4" height="4" fill="#228B22" />
  <rect x="34" y="32" width="4" height="4" fill="#228B22" />
  
  <rect x="28" y="36" width="4" height="4" fill="#228B22" />
  <rect x="32" y="36" width="4" height="4" fill="#228B22" />
  
  <!-- Apples -->
  <rect x="26" y="18" width="4" height="4" fill="#FF0000" />
  <rect x="34" y="18" width="4" height="4" fill="#FF0000" />
  <rect x="30" y="16" width="4" height="4" fill="#FF0000" />
  <rect x="22" y="22" width="4" height="4" fill="#FF0000" />
  <rect x="38" y="22" width="4" height="4" fill="#FF0000" />
</svg>
