<svg width="48" height="48" viewBox="0 0 48 48" xmlns="http://www.w3.org/2000/svg">
  <!-- Clock face -->
  <rect x="8" y="8" width="32" height="32" fill="#10B981" rx="2" />
  
  <!-- Clock center -->
  <rect x="22" y="22" width="4" height="4" fill="#FFFFFF" />
  
  <!-- Hour hand -->
  <rect x="23" y="16" width="2" height="8" fill="#FFFFFF" />
  
  <!-- Minute hand -->
  <rect x="23" y="12" width="2" height="12" fill="#FFFFFF" />
  
  <!-- Clock numbers (pixelated) -->
  <rect x="20" y="10" width="2" height="2" fill="#FFFFFF" />
  <rect x="26" y="10" width="2" height="2" fill="#FFFFFF" />
  <rect x="30" y="14" width="2" height="2" fill="#FFFFFF" />
  <rect x="30" y="20" width="2" height="2" fill="#FFFFFF" />
  <rect x="30" y="26" width="2" height="2" fill="#FFFFFF" />
  <rect x="30" y="32" width="2" height="2" fill="#FFFFFF" />
  <rect x="26" y="36" width="2" height="2" fill="#FFFFFF" />
  <rect x="20" y="36" width="2" height="2" fill="#FFFFFF" />
  <rect x="16" y="32" width="2" height="2" fill="#FFFFFF" />
  <rect x="16" y="26" width="2" height="2" fill="#FFFFFF" />
  <rect x="16" y="20" width="2" height="2" fill="#FFFFFF" />
  <rect x="16" y="14" width="2" height="2" fill="#FFFFFF" />
</svg>
