<svg width="48" height="32" viewBox="0 0 48 32" xmlns="http://www.w3.org/2000/svg">
  <!-- Cloud shape - pixelated -->
  <rect x="8" y="16" width="4" height="4" fill="#FFFFFF" opacity="0.8" />
  <rect x="12" y="16" width="4" height="4" fill="#FFFFFF" opacity="0.8" />
  <rect x="16" y="16" width="4" height="4" fill="#FFFFFF" opacity="0.8" />
  <rect x="20" y="16" width="4" height="4" fill="#FFFFFF" opacity="0.8" />
  <rect x="24" y="16" width="4" height="4" fill="#FFFFFF" opacity="0.8" />
  <rect x="28" y="16" width="4" height="4" fill="#FFFFFF" opacity="0.8" />
  <rect x="32" y="16" width="4" height="4" fill="#FFFFFF" opacity="0.8" />
  <rect x="36" y="16" width="4" height="4" fill="#FFFFFF" opacity="0.8" />
  
  <rect x="6" y="20" width="4" height="4" fill="#FFFFFF" opacity="0.8" />
  <rect x="10" y="20" width="4" height="4" fill="#FFFFFF" opacity="0.8" />
  <rect x="14" y="20" width="4" height="4" fill="#FFFFFF" opacity="0.8" />
  <rect x="18" y="20" width="4" height="4" fill="#FFFFFF" opacity="0.8" />
  <rect x="22" y="20" width="4" height="4" fill="#FFFFFF" opacity="0.8" />
  <rect x="26" y="20" width="4" height="4" fill="#FFFFFF" opacity="0.8" />
  <rect x="30" y="20" width="4" height="4" fill="#FFFFFF" opacity="0.8" />
  <rect x="34" y="20" width="4" height="4" fill="#FFFFFF" opacity="0.8" />
  <rect x="38" y="20" width="4" height="4" fill="#FFFFFF" opacity="0.8" />
  
  <rect x="4" y="24" width="4" height="4" fill="#FFFFFF" opacity="0.8" />
  <rect x="8" y="24" width="4" height="4" fill="#FFFFFF" opacity="0.8" />
  <rect x="12" y="24" width="4" height="4" fill="#FFFFFF" opacity="0.8" />
  <rect x="16" y="24" width="4" height="4" fill="#FFFFFF" opacity="0.8" />
  <rect x="20" y="24" width="4" height="4" fill="#FFFFFF" opacity="0.8" />
  <rect x="24" y="24" width="4" height="4" fill="#FFFFFF" opacity="0.8" />
  <rect x="28" y="24" width="4" height="4" fill="#FFFFFF" opacity="0.8" />
  <rect x="32" y="24" width="4" height="4" fill="#FFFFFF" opacity="0.8" />
  <rect x="36" y="24" width="4" height="4" fill="#FFFFFF" opacity="0.8" />
  <rect x="40" y="24" width="4" height="4" fill="#FFFFFF" opacity="0.8" />
</svg>
