<svg width="32" height="16" viewBox="0 0 32 16" xmlns="http://www.w3.org/2000/svg">
  <!-- Grass blades - pixelated -->
  <rect x="2" y="12" width="2" height="4" fill="#228B22" />
  <rect x="4" y="10" width="2" height="6" fill="#32CD32" />
  <rect x="6" y="11" width="2" height="5" fill="#228B22" />
  <rect x="8" y="9" width="2" height="7" fill="#32CD32" />
  <rect x="10" y="12" width="2" height="4" fill="#228B22" />
  <rect x="12" y="8" width="2" height="8" fill="#32CD32" />
  <rect x="14" y="10" width="2" height="6" fill="#228B22" />
  <rect x="16" y="11" width="2" height="5" fill="#32CD32" />
  <rect x="18" y="9" width="2" height="7" fill="#228B22" />
  <rect x="20" y="12" width="2" height="4" fill="#32CD32" />
  <rect x="22" y="8" width="2" height="8" fill="#228B22" />
  <rect x="24" y="10" width="2" height="6" fill="#32CD32" />
  <rect x="26" y="11" width="2" height="5" fill="#228B22" />
  <rect x="28" y="9" width="2" height="7" fill="#32CD32" />
  <rect x="30" y="12" width="2" height="4" fill="#228B22" />
</svg>
