<svg width="64" height="64" viewBox="0 0 64 64" xmlns="http://www.w3.org/2000/svg">
  <!-- Sun rays -->
  <rect x="30" y="4" width="4" height="8" fill="#FFD700" />
  <rect x="30" y="52" width="4" height="8" fill="#FFD700" />
  <rect x="4" y="30" width="8" height="4" fill="#FFD700" />
  <rect x="52" y="30" width="8" height="4" fill="#FFD700" />
  
  <rect x="22" y="8" width="4" height="6" fill="#FFD700" />
  <rect x="38" y="8" width="4" height="6" fill="#FFD700" />
  <rect x="22" y="50" width="4" height="6" fill="#FFD700" />
  <rect x="38" y="50" width="4" height="6" fill="#FFD700" />
  
  <rect x="8" y="22" width="6" height="4" fill="#FFD700" />
  <rect x="50" y="22" width="6" height="4" fill="#FFD700" />
  <rect x="8" y="38" width="6" height="4" fill="#FFD700" />
  <rect x="50" y="38" width="6" height="4" fill="#FFD700" />
  
  <!-- Sun center -->
  <rect x="24" y="24" width="16" height="16" fill="#FFD700" />
  <rect x="26" y="26" width="12" height="12" fill="#FFA500" />
  <rect x="28" y="28" width="8" height="8" fill="#FFD700" />
  <rect x="30" y="30" width="4" height="4" fill="#FFFFFF" />
</svg>
